HIERARCHY
ROOT hip
{
  OFFSET 0 0 0
  CHANNELS 6 Xposition Yposition Zposition Zrotation Yrotation Xrotation
  JOINT abdomen
  {
    OFFSET 0 20.6881 -0.73152
    CHANNELS 3 Zrotation Xrotation Yrotation
    JOINT chest
    {
      OFFSET 0 11.7043 -0.48768
      CHANNELS 3 Zrotation Xrotation Yrotation
      JOINT neck
      {
        OFFSET 0 22.1894 -2.19456
        CHANNELS 3 Zrotation Xrotation Yrotation
        JOINT head
        {
          OFFSET -0.24384 7.07133 1.2192
          CHANNELS 3 Zrotation Xrotation Yrotation
          JOINT leftEye
          {
            OFFSET 4.14528 8.04674 8.04672
            CHANNELS 3 Zrotation Xrotation Yrotation
            End Site
            {
              OFFSET 1 0 0
            }
          }
          JOINT rightEye
          {
            OFFSET -3.6576 8.04674 8.04672
            CHANNELS 3 Zrotation Xrotation Yrotation
            End Site
            {
              OFFSET 1 0 0
            }
          }
        }
      }
      JOINT rCollar
      {
        OFFSET -2.68224 19.2634 -4.8768
        CHANNELS 3 Zrotation Xrotation Yrotation
        JOINT rShldr
        {
          OFFSET -8.77824 -1.95073 1.46304
          CHANNELS 3 Zrotation Xrotation Yrotation
          JOINT rForeArm
          {
            OFFSET -28.1742 -1.7115 0.48768
            CHANNELS 3 Zrotation Xrotation Yrotation
            JOINT rHand
            {
              OFFSET -22.5879 0.773209 7.07136
              CHANNELS 3 Zrotation Xrotation Yrotation
              JOINT rThumb1
              {
                OFFSET -1.2192 -0.487915 3.41376
                CHANNELS 3 Zrotation Xrotation Yrotation
                JOINT rThumb2
                {
                  OFFSET -3.37035 -0.52449 3.41376
                  CHANNELS 3 Zrotation Xrotation Yrotation
                  End Site
                  {
                    OFFSET -1.78271 -1.18214 1.43049
                  }
                }
              }
              JOINT rIndex1
              {
                OFFSET -7.75947 0.938293 5.60832
                CHANNELS 3 Zrotation Xrotation Yrotation
                JOINT rIndex2
                {
                  OFFSET -2.54057 -0.884171 1.56538
                  CHANNELS 3 Zrotation Xrotation Yrotation
                  End Site
                  {
                    OFFSET -1.62519 -0.234802 1.16502
                  }
                }
              }
              JOINT rMid1
              {
                OFFSET -8.24714 1.18213 3.41376
                CHANNELS 3 Zrotation Xrotation Yrotation
                JOINT rMid2
                {
                  OFFSET -3.10165 -0.590103 1.0647
                  CHANNELS 3 Zrotation Xrotation Yrotation
                  End Site
                  {
                    OFFSET -2.48547 -0.328903 0.83742
                  }
                }
              }
              JOINT rRing1
              {
                OFFSET -8.82822 0.546677 1.51678
                CHANNELS 3 Zrotation Xrotation Yrotation
                JOINT rRing2
                {
                  OFFSET -2.60934 -0.819778 -0.0198488
                  CHANNELS 3 Zrotation Xrotation Yrotation
                  End Site
                  {
                    OFFSET -2.33842 -0.294052 0.168128
                  }
                }
              }
              JOINT rPinky1
              {
                OFFSET -8.27202 -0.0477905 -0.4584
                CHANNELS 3 Zrotation Xrotation Yrotation
                JOINT rPinky2
                {
                  OFFSET -1.82734 -0.647385 -0.700984
                  CHANNELS 3 Zrotation Xrotation Yrotation
                  End Site
                  {
                    OFFSET -1.69225 -0.51767 -0.607171
                  }
                }
              }
            }
          }
        }
      }
      JOINT lCollar
      {
        OFFSET 2.68224 19.2634 -4.8768
        CHANNELS 3 Zrotation Xrotation Yrotation
        JOINT lShldr
        {
          OFFSET 8.77824 -1.95073 1.46304
          CHANNELS 3 Zrotation Xrotation Yrotation
          JOINT lForeArm
          {
            OFFSET 28.1742 -1.7115 0.48768
            CHANNELS 3 Zrotation Xrotation Yrotation
            JOINT lHand
            {
              OFFSET 22.5879 0.773209 7.07136
              CHANNELS 3 Zrotation Xrotation Yrotation
              JOINT lThumb1
              {
                OFFSET 1.2192 -0.487915 3.41376
                CHANNELS 3 Zrotation Xrotation Yrotation
                JOINT lThumb2
                {
                  OFFSET 3.37035 -0.52449 3.41376
                  CHANNELS 3 Zrotation Xrotation Yrotation
                  End Site
                  {
                    OFFSET 1.78271 -1.18214 1.43049
                  }
                }
              }
              JOINT lIndex1
              {
                OFFSET 7.75947 0.938293 5.60832
                CHANNELS 3 Zrotation Xrotation Yrotation
                JOINT lIndex2
                {
                  OFFSET 2.54057 -0.884171 1.56538
                  CHANNELS 3 Zrotation Xrotation Yrotation
                  End Site
                  {
                    OFFSET 1.62519 -0.234802 1.16502
                  }
                }
              }
              JOINT lMid1
              {
                OFFSET 8.24714 1.18213 3.41376
                CHANNELS 3 Zrotation Xrotation Yrotation
                JOINT lMid2
                {
                  OFFSET 3.10165 -0.590103 1.0647
                  CHANNELS 3 Zrotation Xrotation Yrotation
                  End Site
                  {
                    OFFSET 2.48547 -0.328903 0.83742
                  }
                }
              }
              JOINT lRing1
              {
                OFFSET 8.82822 0.546677 1.51678
                CHANNELS 3 Zrotation Xrotation Yrotation
                JOINT lRing2
                {
                  OFFSET 2.60934 -0.819778 -0.0198488
                  CHANNELS 3 Zrotation Xrotation Yrotation
                  End Site
                  {
                    OFFSET 2.33842 -0.294052 0.168128
                  }
                }
              }
              JOINT lPinky1
              {
                OFFSET 8.27202 -0.0477905 -0.4584
                CHANNELS 3 Zrotation Xrotation Yrotation
                JOINT lPinky2
                {
                  OFFSET 1.82734 -0.647385 -0.700984
                  CHANNELS 3 Zrotation Xrotation Yrotation
                  End Site
                  {
                    OFFSET 1.69225 -0.51767 -0.607171
                  }
                }
              }
            }
          }
        }
      }
    }
  }
  JOINT rButtock
  {
    OFFSET -8.77824 4.35084 1.2192
    CHANNELS 3 Zrotation Xrotation Yrotation
    JOINT rThigh
    {
      OFFSET 0 -1.70687 -2.19456
      CHANNELS 3 Zrotation Xrotation Yrotation
      JOINT rShin
      {
        OFFSET 0 -36.8199 0.73152
        CHANNELS 3 Zrotation Xrotation Yrotation
        JOINT rFoot
        {
          OFFSET 0.73152 -45.1104 -5.12064
          CHANNELS 3 Zrotation Xrotation Yrotation
          End Site
          {
            OFFSET -1.1221 -3.69964 12.103
          }
        }
      }
    }
  }
  JOINT lButtock
  {
    OFFSET 8.77824 4.35084 1.2192
    CHANNELS 3 Zrotation Xrotation Yrotation
    JOINT lThigh
    {
      OFFSET 0 -1.70687 -2.19456
      CHANNELS 3 Zrotation Xrotation Yrotation
      JOINT lShin
      {
        OFFSET 0 -36.8199 0.73152
        CHANNELS 3 Zrotation Xrotation Yrotation
        JOINT lFoot
        {
          OFFSET -0.73152 -45.1104 -5.12064
          CHANNELS 3 Zrotation Xrotation Yrotation
          End Site
          {
            OFFSET 1.1221 -3.69964 12.103
          }
        }
      }
    }
  }
}
MOTION
Frames:	9
Frame Time:	0.00833333
-20.1656 78.2503 20.496 176.236 -78.1422 -177.624 -5.69281 5.90884 1.32597 2.11994 -6.75986 0.225983 -7.59367 -9.94128 3.10131 3.49571 -9.49381 9.82449 -0.0 0.0 0.0 -0.0 0.0 0.0 -4.03337e-15 -3.37326e-13 -1.67072e-13 -10.5686 -67.1987 60.4744 -16.1438 -8.82154 29.9766 -0.040247 -5.68411 -0.801552 -2.11366e-10 -2.68788e-09 -3.92629e-10 -3.58839e-10 -4.65617e-09 -6.82051e-10 -2.11366e-10 -2.68788e-09 -3.9264e-10 7.73091 5.47488 0.417314 -2.11369e-10 -2.68788e-09 -3.92625e-10 2.90554 0.965183 0.102902 -2.11361e-10 -2.68788e-09 -3.9263e-10 10.2786 0.731801 0.0259123 -2.11374e-10 -2.68788e-09 -3.92626e-10 2.22167 -0.733487 -0.20892 -4.1357e-15 -3.37327e-13 -1.67386e-13 3.16168 -65.219 -58.1318 14.8485 -7.65991 -27.2773 0.221957 -13.2974 1.90347 6.40609e-10 1.51214e-09 -3.87274e-10 1.11664e-09 2.62013e-09 -6.67938e-10 6.40605e-10 1.51213e-09 -3.8727e-10 -7.73091 5.47488 -0.417314 6.40607e-10 1.51213e-09 -3.87275e-10 -2.90554 0.965183 -0.102902 6.40603e-10 1.51213e-09 -3.87273e-10 -10.2786 0.731801 -0.0259123 6.40624e-10 1.51213e-09 -3.87283e-10 -2.22167 -0.733487 0.20892 -2.03217e-16 0.0 -3.88251e-19 -12.0936 -15.0134 5.76228 -0.450186 43.9083 0.73008 1.87625 -16.0301 5.4456 2.03217e-16 0.0 3.88251e-19 11.9633 -17.2484 -1.5283 0.193522 35.0325 -0.514942 -0.791239 -12.5602 -1.97377
-20.0263 78.1313 20.2145 176.663 -78.5442 -178.226 -6.21813 6.12914 1.52112 2.05277 -6.83251 0.266669 -7.71813 -9.84175 3.14875 3.63033 -9.10795 9.96418 -0.0 0.0 0.0 -0.0 0.0 0.0 1.28311e-14 -8.26813e-13 -2.70735e-13 -10.2472 -67.4436 60.7349 -16.1918 -8.86676 30.0783 -0.0433581 -5.88453 -0.830044 1.81796e-10 -3.63862e-09 -5.32904e-10 3.2263e-10 -6.30257e-09 -9.24694e-10 1.81797e-10 -3.63862e-09 -5.32914e-10 7.73091 5.47488 0.417314 1.81793e-10 -3.63862e-09 -5.329e-10 2.90554 0.965183 0.102902 1.81802e-10 -3.63862e-09 -5.32906e-10 10.2786 0.731801 0.0259123 1.8179e-10 -3.63862e-09 -5.32902e-10 2.22167 -0.733487 -0.20892 1.27136e-14 -8.26815e-13 -2.7099e-13 3.3032 -65.2029 -57.9711 15.0374 -7.82223 -27.6666 0.241016 -13.8398 1.98423 3.23087e-10 1.95657e-09 -4.63454e-10 5.70629e-10 3.39004e-09 -8.03266e-10 3.23083e-10 1.95657e-09 -4.63448e-10 -7.73091 5.47488 -0.417314 3.23085e-10 1.95657e-09 -4.63455e-10 -2.90554 0.965183 -0.102902 3.23082e-10 1.95657e-09 -4.63456e-10 -10.2786 0.731801 -0.0259123 3.231e-10 1.95657e-09 -4.63466e-10 -2.22167 -0.733487 0.20892 -2.03217e-16 0.0 -3.88251e-19 -12.5543 -15.4711 5.04131 -0.46843 44.632 0.749883 1.83696 -16.1722 5.29664 2.03217e-16 0.0 3.88251e-19 11.6752 -17.4675 -1.68451 0.192491 34.9733 -0.506939 -0.920615 -12.4263 -2.43132
-19.8429 78.0709 20.0322 175.231 -78.8767 -176.825 -6.75694 6.30978 1.74078 1.96787 -6.88469 0.313154 -7.8717 -9.74932 3.17148 3.85644 -8.73627 10.078 -0.0 0.0 0.0 -0.0 0.0 0.0 2.92722e-14 -1.24443e-12 -3.53854e-13 -9.6234 -67.6824 61.2626 -16.2356 -8.90811 30.1715 -0.0463055 -6.09443 -0.859858 5.67006e-10 -4.3214e-09 -6.16842e-10 9.89642e-10 -7.48469e-09 -1.06952e-09 5.67008e-10 -4.32139e-09 -6.16849e-10 7.73091 5.47488 0.417314 5.67004e-10 -4.32139e-09 -6.16838e-10 2.90554 0.965183 0.102902 5.67013e-10 -4.32139e-09 -6.16844e-10 10.2786 0.731801 0.0259123 5.67001e-10 -4.32139e-09 -6.16841e-10 2.22167 -0.733487 -0.20892 2.91414e-14 -1.24443e-12 -3.54046e-13 3.63652 -65.084 -57.6569 15.2368 -7.99629 -28.079 0.261332 -14.3965 2.06749 -9.43572e-12 2.24763e-09 -5.06417e-10 -2.28342e-12 3.89422e-09 -8.81023e-10 -9.43869e-12 2.24763e-09 -5.06409e-10 -7.73091 5.47488 -0.417314 -9.43673e-12 2.24763e-09 -5.0642e-10 -2.90554 0.965183 -0.102902 -9.43882e-12 2.24763e-09 -5.06423e-10 -10.2786 0.731801 -0.0259123 -9.42344e-12 2.24763e-09 -5.06432e-10 -2.22167 -0.733487 0.20892 -2.03217e-16 0.0 -3.88251e-19 -12.9812 -15.8655 4.32707 -0.484483 45.249 0.76832 1.7563 -16.2822 5.05577 2.03217e-16 0.0 3.88251e-19 11.3963 -17.6342 -1.88201 0.189638 34.8265 -0.496744 -1.03311 -12.1691 -2.86668
-19.6112 78.0738 20.0652 169.257 -79.0286 -170.685 -7.14124 6.43689 1.95724 1.8552 -6.90299 0.359642 -7.98329 -9.60318 3.17869 4.04352 -8.43074 10.1319 -0.0 0.0 0.0 -0.0 0.0 0.0 3.92276e-14 -1.3661e-12 -3.72026e-13 -8.87157 -67.8587 61.8999 -16.2676 -8.93832 30.2396 -0.0507469 -6.41548 -0.905462 8.27784e-10 -4.35621e-09 -5.88053e-10 1.44007e-09 -7.54442e-09 -1.01887e-09 8.27788e-10 -4.35621e-09 -5.88059e-10 7.73091 5.47488 0.417314 8.27782e-10 -4.35621e-09 -5.8805e-10 2.90554 0.965183 0.102902 8.27793e-10 -4.35621e-09 -5.88055e-10 10.2786 0.731801 0.0259123 8.27781e-10 -4.35621e-09 -5.88053e-10 2.22167 -0.733487 -0.20892 3.90961e-14 -1.3661e-12 -3.72175e-13 4.31377 -64.8214 -57.0457 15.4507 -8.1866 -28.5212 0.28347 -14.9824 2.15548 -2.52428e-10 2.21292e-09 -4.51241e-10 -4.22995e-10 3.83392e-09 -7.87621e-10 -2.52431e-10 2.21292e-09 -4.51232e-10 -7.73091 5.47488 -0.417314 -2.52429e-10 2.21292e-09 -4.51244e-10 -2.90554 0.965183 -0.102902 -2.52431e-10 2.21292e-09 -4.51248e-10 -10.2786 0.731801 -0.0259123 -2.52418e-10 2.21292e-09 -4.51257e-10 -2.22167 -0.733487 0.20892 -2.03217e-16 0.0 -3.88251e-19 -13.1444 -16.0264 3.72366 -0.493165 45.5771 0.779556 1.6326 -16.3911 4.718 2.03217e-16 0.0 3.88251e-19 11.2963 -17.6911 -2.17723 0.184184 34.5517 -0.48332 -1.10556 -11.7598 -3.21692
-19.5167 78.1221 19.3341 174.463 -79.5832 -176.221 -7.30723 6.51676 2.18452 1.70271 -6.88093 0.409844 -8.02659 -9.36911 3.16835 4.1672 -8.25196 10.1061 -0.0 0.0 0.0 -0.0 0.0 0.0 4.35824e-14 -9.64706e-13 -2.79413e-13 -8.01626 -67.9528 62.6027 -16.2937 -8.96283 30.2955 -0.0587519 -6.94991 -0.981496 9.55697e-10 -3.30904e-09 -3.50638e-10 1.65815e-09 -5.72969e-09 -6.0615e-10 9.55701e-10 -3.30903e-09 -3.50644e-10 7.73091 5.47488 0.417314 9.55696e-10 -3.30903e-09 -3.50636e-10 2.90554 0.965183 0.102902 9.55706e-10 -3.30903e-09 -3.5064e-10 10.2786 0.731801 0.0259123 9.55695e-10 -3.30903e-09 -3.50639e-10 2.22167 -0.733487 -0.20892 4.34757e-14 -9.64711e-13 -2.79547e-13 5.42821 -64.3872 -56.0691 15.6768 -8.39056 -28.9927 0.30822 -15.6082 2.25002 -3.96801e-10 1.61746e-09 -2.04028e-10 -6.77936e-10 2.80202e-09 -3.60185e-10 -3.96802e-10 1.61746e-09 -2.04017e-10 -7.73091 5.47488 -0.417314 -3.96801e-10 1.61746e-09 -2.04031e-10 -2.90554 0.965183 -0.102902 -3.96805e-10 1.61746e-09 -2.04034e-10 -10.2786 0.731801 -0.0259123 -3.96792e-10 1.61746e-09 -2.04042e-10 -2.22167 -0.733487 0.20892 -2.03217e-16 0.0 -3.88251e-19 -12.9035 -15.903 3.30669 -0.492867 45.5788 0.783719 1.43111 -16.5685 4.18705 2.03217e-16 0.0 3.88251e-19 11.4643 -17.5873 -2.58842 0.176191 34.1329 -0.466771 -1.13392 -11.2251 -3.46885
-19.3721 78.2516 18.8902 175.794 -79.9948 -177.642 -7.35006 6.55342 2.43016 1.51874 -6.82662 0.465082 -8.0416 -9.08554 3.13715 4.29488 -8.15643 10.0222 -0.0 0.0 0.0 -0.0 0.0 0.0 4.4736e-14 -2.15552e-13 -1.11031e-13 -6.97412 -67.9929 63.4525 -16.3153 -8.98314 30.3419 -0.0703795 -7.6184 -1.07693 1.00532e-09 -1.49343e-09 3.8374e-11 1.73897e-09 -2.58368e-09 6.96912e-11 1.00533e-09 -1.49343e-09 3.83682e-11 7.73091 5.47488 0.417314 1.00532e-09 -1.49343e-09 3.83756e-11 2.90554 0.965183 0.102902 1.00533e-09 -1.49343e-09 3.83728e-11 10.2786 0.731801 0.0259123 1.00532e-09 -1.49343e-09 3.83737e-11 2.22167 -0.733487 -0.20892 4.46704e-14 -2.15556e-13 -1.11164e-13 6.83825 -63.7998 -54.8585 15.9131 -8.60616 -29.4908 0.335594 -16.2637 2.34975 -4.92041e-10 6.16219e-10 1.75068e-10 -8.51229e-10 1.067e-09 2.96508e-10 -4.92041e-10 6.16221e-10 1.7508e-10 -7.73091 5.47488 -0.417314 -4.92041e-10 6.16221e-10 1.75066e-10 -2.90554 0.965183 -0.102902 -4.92046e-10 6.1622e-10 1.75065e-10 -10.2786 0.731801 -0.0259123 -4.92033e-10 6.16221e-10 1.75058e-10 -2.22167 -0.733487 0.20892 -2.03217e-16 0.0 -3.88251e-19 -12.3987 -15.5885 3.00704 -0.486069 45.3475 0.783057 1.16098 -16.776 3.49631 2.03217e-16 0.0 3.88251e-19 11.7992 -17.3647 -3.08321 0.166281 33.5931 -0.447719 -1.12891 -10.5693 -3.65502
-19.2062 78.4847 18.6536 173.106 -80.4057 -174.897 -7.33948 6.52982 2.65669 1.32379 -6.74858 0.515973 -8.05682 -8.80058 3.09236 4.4342 -8.03985 9.90835 -0.0 0.0 0.0 -0.0 0.0 0.0 3.88973e-14 5.01844e-13 5.6251e-14 -5.76698 -67.995 64.4703 -16.3184 -8.98605 30.3485 -0.0833232 -8.2504 -1.16755 9.54708e-10 3.49206e-10 4.05981e-10 1.64668e-09 6.08853e-10 7.08067e-10 9.54712e-10 3.4921e-10 4.05975e-10 7.73091 5.47488 0.417314 9.54707e-10 3.49206e-10 4.05982e-10 2.90554 0.965183 0.102902 9.54715e-10 3.49207e-10 4.0598e-10 10.2786 0.731801 0.0259123 9.54708e-10 3.49207e-10 4.05981e-10 2.22167 -0.733487 -0.20892 3.88674e-14 5.0184e-13 5.61101e-14 8.34086 -63.0877 -53.5738 16.1628 -8.83841 -30.0198 0.364973 -16.9322 2.4522 -5.21486e-10 -3.78377e-10 5.19893e-10 -9.10315e-10 -6.5645e-10 8.94578e-10 -5.21485e-10 -3.78373e-10 5.19906e-10 -7.73091 5.47488 -0.417314 -5.21486e-10 -3.78374e-10 5.19892e-10 -2.90554 0.965183 -0.102902 -5.21494e-10 -3.78374e-10 5.19893e-10 -10.2786 0.731801 -0.0259123 -5.2148e-10 -3.78373e-10 5.19887e-10 -2.22167 -0.733487 0.20892 -2.03217e-16 0.0 -3.88251e-19 -11.8151 -15.1289 2.71326 -0.473631 44.8977 0.77484 0.892058 -16.8834 2.83688 2.03217e-16 0.0 3.88251e-19 12.1848 -17.1048 -3.6423 0.1546 32.9517 -0.425958 -1.09049 -9.73031 -3.78161
-19.0609 78.77 18.355 170.727 -80.936 -172.482 -7.34505 6.42895 2.82663 1.13842 -6.65532 0.553144 -8.101 -8.5624 3.04113 4.59331 -7.79788 9.79299 -0.0 0.0 0.0 -0.0 0.0 0.0 2.22752e-14 8.07962e-13 1.4556e-13 -4.4154 -67.974 65.6781 -16.2888 -8.95836 30.2847 -0.093206 -8.67537 -1.22874 7.81891e-10 1.47747e-09 5.79179e-10 1.34545e-09 2.56319e-09 1.00839e-09 7.81894e-10 1.47747e-09 5.79173e-10 7.73091 5.47488 0.417314 7.8189e-10 1.47747e-09 5.79179e-10 2.90554 0.965183 0.102902 7.81897e-10 1.47747e-09 5.79179e-10 10.2786 0.731801 0.0259123 7.81891e-10 1.47747e-09 5.79179e-10 2.22167 -0.733487 -0.20892 2.2254e-14 8.07958e-13 1.45411e-13 9.75193 -62.285 -52.356 16.4291 -9.09209 -30.5837 0.395498 -17.5971 2.55477 -4.68475e-10 -9.53887e-10 6.64294e-10 -8.22634e-10 -1.65364e-09 1.14614e-09 -4.68473e-10 -9.53882e-10 6.64307e-10 -7.73091 5.47488 -0.417314 -4.68474e-10 -9.53883e-10 6.64294e-10 -2.90554 0.965183 -0.102902 -4.68483e-10 -9.53883e-10 6.64296e-10 -10.2786 0.731801 -0.0259123 -4.6847e-10 -9.53882e-10 6.64291e-10 -2.22167 -0.733487 0.20892 -2.03217e-16 0.0 -3.88251e-19 -11.3363 -14.5692 2.31432 -0.45674 44.2437 0.756595 0.701405 -16.7625 2.40194 2.03217e-16 0.0 3.88251e-19 12.5016 -16.8892 -4.24726 0.141305 32.2276 -0.401283 -1.0188 -8.64565 -3.85517
-18.9439 79.1047 17.9402 170.353 -81.6393 -172.093 -7.37609 6.23006 2.91136 0.972403 -6.5453 0.569024 -8.17642 -8.38138 2.99195 4.76811 -7.3642 9.69273 -0.0 0.0 0.0 -0.0 0.0 0.0 -1.90005e-14 3.93683e-13 1.10758e-13 -2.69248 -67.9136 67.3299 -16.2111 -8.88545 30.1182 -0.0960688 -8.7849 -1.24457 2.99257e-10 1.54255e-09 4.36678e-10 5.12334e-10 2.67434e-09 7.59218e-10 2.9926e-10 1.54255e-09 4.36671e-10 7.73091 5.47488 0.417314 2.99256e-10 1.54255e-09 4.36678e-10 2.90554 0.965183 0.102902 2.99264e-10 1.54255e-09 4.36678e-10 10.2786 0.731801 0.0259123 2.99257e-10 1.54255e-09 4.36678e-10 2.22167 -0.733487 -0.20892 -1.90586e-14 3.93678e-13 1.10598e-13 10.9854 -61.3747 -51.2618 16.707 -9.3613 -31.1794 0.426191 -18.2332 2.65371 -2.2459e-10 -8.8066e-10 4.54005e-10 -3.97733e-10 -1.52657e-09 7.85472e-10 -2.24589e-10 -8.80655e-10 4.54017e-10 -7.73091 5.47488 -0.417314 -2.2459e-10 -8.80656e-10 4.54006e-10 -2.90554 0.965183 -0.102902 -2.246e-10 -8.80656e-10 4.54009e-10 -10.2786 0.731801 -0.0259123 -2.24588e-10 -8.80655e-10 4.54004e-10 -2.22167 -0.733487 0.20892 -2.03217e-16 0.0 -3.88251e-19 -11.0139 -13.8557 1.75394 -0.434875 43.3128 0.724929 0.645867 -16.3811 2.33234 2.03217e-16 0.0 3.88251e-19 12.7215 -16.6904 -4.89218 0.125487 31.3627 -0.372406 -0.924645 -7.2801 -3.94909
